<svg xmlns="http://www.w3.org/2000/svg" viewBox="0 0 150 150" width="150" height="150">
	<style>
		tspan { white-space:pre }
		.shp0 { fill: #ffffff }
	</style>
	<path id="Layer 1" class="shp0" d="M75 150C33.52 150 0 116.47 0 75C0 33.52 33.52 0 75 0C116.47 0 150 33.52 150 75C150 116.47 116.47 150 75 150Z" />
	<path id="R " fill="#0163E9" aria-label="R"  d="M49 110.5Q47.1 110.5 46.4 110.4Q47.1 104.6 52.5 81Q58 57.3 58 51Q58 49.8 56.6 47.9Q55.2 45.9 53.8 44.6L52.5 43.2L52.8 41.6Q66.5 39 81.8 39Q100.2 39 100.2 53.5Q100.2 60.6 96.6 66.5Q93.1 72.3 85.6 75.6Q91.2 94.3 95.2 99.8Q97 102.1 98 102.1Q99.8 102.1 103.6 100.3L104.8 99.7L107.1 103.4Q103.4 106.8 98.5 109Q93.7 111.2 89.4 111.2Q85.2 111.2 82.4 107.6Q79.7 103.9 77.4 96.8Q75.2 89.7 72.9 78.6Q69.7 78.8 68 78.8Q62.9 100.7 62.4 108.4Q58.1 110.5 49 110.5ZM69.5 72L71.9 72Q77.9 72 81.3 66.7Q84.8 61.3 84.8 53.9Q84.8 50 83.4 47.6Q82 45.2 79.2 45.2Q78 45.2 76.3 45.6Q74.7 45.9 74.7 46Q73.1 56.3 69.5 72Z" />
</svg>